# xmcd CD database file
#
# Track frame offsets:
#	150
#	29397
#	46225
#	66753
#	108315
#	131694
#	158245
#	180650
#	202832
#	234222
#	256440
#	283470
#	312013
#	331086
#
# Disc length: 4683 seconds
#
# Revision: 0
# Processed by: cddbd v1.5.2PL0 Copyright (c) Steve Scherf et al.
# Submitted via: CDex 1.50beta10
#
DISCID=be12490e
DTITLE=Bill Evans - Empathy 1thr6 How My Heart Sings
DYEAR=1962
DGENRE=Jazz
TTITLE0=The Washington Twist
TTITLE1=Danny Boy
TTITLE2=Let's Go Back To The Waltz
TTITLE3=With A Song In My Heart
TTITLE4=Goodbye
TTITLE5=I Believe In You
TTITLE6=How My Heart Sings
TTITLE7=I Should Care
TTITLE8=In Your Own Sweet Way
TTITLE9=Walking Up
TTITLE10=Summertime
TTITLE11=Skidoo
TTITLE12=Everything I Love
TTITLE13=Show-Type Tune
EXTD=YEAR: 1962
EXTT0=
EXTT1=
EXTT2=
EXTT3=
EXTT4=
EXTT5=
EXTT6=
EXTT7=
EXTT8=
EXTT9=
EXTT10=
EXTT11=
EXTT12=
EXTT13=
PLAYORDER=
